<?xml version="1.0" standalone="no"?>
<!DOCTYPE svg PUBLIC "-//W3C//DTD SVG 20010904//EN"
 "http://www.w3.org/TR/2001/REC-SVG-20010904/DTD/svg10.dtd">
<svg version="1.0" xmlns="http://www.w3.org/2000/svg"
 width="1920.000000pt" height="480.000000pt" viewBox="0 0 1920.000000 480.000000"
 preserveAspectRatio="xMidYMid meet">

<g transform="translate(0.000000,480.000000) scale(0.100000,-0.100000)"
fill="#000000" stroke="none">
<path d="M137 4708 c5 -7 13 -33 16 -58 6 -48 24 -68 70 -77 24 -5 27 -10 27
-50 0 -36 -4 -45 -23 -52 -20 -8 -18 -9 18 -16 22 -3 47 -8 55 -9 9 -2 4 -7
-12 -14 -16 -6 -28 -16 -28 -22 0 -5 -8 -10 -17 -11 -15 0 -14 -2 3 -9 12 -4
24 -16 27 -25 4 -9 3 -14 -2 -11 -5 3 -11 -5 -13 -19 -3 -14 -3 -25 0 -25 3 0
39 21 79 46 52 32 73 51 69 61 -3 8 -6 19 -6 24 0 6 -4 7 -10 4 -6 -3 -7 1 -4
9 7 19 3 20 -30 5 -20 -10 -30 -9 -51 5 -21 14 -25 24 -25 61 0 40 3 45 23 45
42 1 77 45 77 99 0 17 5 31 10 31 6 0 10 5 10 10 0 18 -39 11 -50 -9 -5 -11
-10 -35 -10 -55 0 -35 -32 -72 -52 -60 -13 8 -10 108 4 122 9 9 3 12 -27 12
-30 0 -36 -3 -27 -12 7 -7 12 -36 12 -65 0 -46 -3 -53 -19 -53 -25 0 -34 14
-46 75 -8 42 -14 51 -35 53 -19 3 -22 1 -13 -10z"/>
<path d="M18807 4708 c5 -7 13 -33 16 -58 6 -48 24 -68 70 -77 24 -5 27 -10
27 -50 0 -36 -4 -45 -22 -52 -21 -8 -19 -9 17 -16 22 -3 47 -8 55 -9 9 -2 4
-7 -12 -14 -16 -6 -28 -16 -28 -22 0 -5 -8 -10 -17 -11 -15 0 -14 -2 3 -9 12
-4 24 -16 27 -25 4 -9 3 -14 -2 -11 -5 3 -11 -5 -13 -19 -3 -14 -3 -25 0 -25
3 0 39 21 79 46 52 32 73 51 69 61 -3 8 -6 19 -6 24 0 6 -4 7 -10 4 -6 -3 -7
1 -4 9 7 19 3 20 -30 5 -20 -10 -30 -9 -51 5 -21 14 -25 24 -25 61 0 40 3 45
23 45 42 1 77 45 77 99 0 17 5 31 10 31 6 0 10 5 10 10 0 18 -39 11 -50 -9 -5
-11 -10 -35 -10 -55 0 -35 -32 -72 -52 -60 -13 8 -10 108 4 122 9 9 3 12 -27
12 -30 0 -36 -3 -27 -12 7 -7 12 -36 12 -65 0 -46 -3 -53 -19 -53 -25 0 -34
14 -46 75 -8 42 -14 51 -35 53 -19 3 -22 1 -13 -10z"/>
<path d="M93 4542 c-24 -2 -43 -7 -43 -11 0 -14 34 -38 62 -45 37 -8 98 17 98
41 0 19 -22 22 -117 15z"/>
<path d="M352 4540 c-42 -5 -42 -5 -27 -27 21 -30 103 -33 128 -5 10 10 17 21
17 24 0 9 -70 14 -118 8z"/>
<path d="M13900 4315 l0 -235 -6950 0 -6950 0 0 -1680 0 -1680 6948 -2 6947
-3 3 -232 2 -233 2220 0 2220 0 0 2150 0 2150 -2220 0 -2220 0 0 -235z m2020
-395 c0 -13 -1 -13 -10 0 -5 8 -10 22 -10 30 0 13 1 13 10 0 5 -8 10 -22 10
-30z m95 -28 c-21 -15 -14 -32 18 -40 17 -5 37 -5 43 -1 11 9 52 -26 47 -40
-2 -3 1 -6 7 -6 5 0 19 -8 30 -17 11 -10 25 -18 30 -18 5 0 7 -6 4 -14 -6 -17
23 -29 32 -14 5 7 2 8 -6 3 -9 -5 -11 -4 -6 3 4 7 16 12 27 12 10 0 19 5 19
10 0 6 6 10 14 10 8 0 16 7 19 14 4 10 1 13 -9 9 -7 -3 -14 0 -14 6 0 6 6 11
13 11 15 0 46 -19 32 -21 -5 0 -1 -4 10 -8 12 -5 24 -3 32 4 14 14 63 8 63 -8
0 -7 4 -7 12 1 17 17 48 15 48 -2 0 -8 4 -18 10 -21 6 -3 7 1 4 9 -3 9 -2 16
4 16 5 0 12 -7 16 -15 8 -21 35 -19 31 3 -1 9 0 11 2 4 3 -7 9 -9 15 -6 7 5 8
2 3 -6 -6 -10 -4 -12 10 -6 15 5 16 4 5 -9 -7 -8 -16 -12 -21 -9 -5 3 -9 0 -9
-5 0 -6 -11 -11 -24 -11 -14 0 -27 -4 -31 -9 -6 -11 -106 -50 -144 -57 -13 -3
-32 -9 -43 -15 -22 -12 -97 7 -115 30 -7 8 -13 11 -13 6 0 -5 -5 -4 -12 3 -7
7 -20 12 -29 12 -9 0 -22 7 -29 15 -7 8 -20 15 -30 15 -9 0 -25 9 -35 20 -10
11 -26 20 -37 20 -10 0 -18 5 -18 11 0 6 -6 9 -14 6 -17 -7 -41 36 -32 58 3 9
10 14 15 11 5 -3 16 5 25 19 9 14 22 25 29 25 7 0 8 -3 2 -8z m-55 -12 c0 -5
-7 -7 -15 -4 -8 4 -15 8 -15 10 0 2 7 4 15 4 8 0 15 -4 15 -10z m90 -4 c0 -2
-7 -6 -15 -10 -8 -3 -15 -1 -15 4 0 6 7 10 15 10 8 0 15 -2 15 -4z m380 -13
c0 -9 -7 -12 -19 -8 -13 4 -20 0 -24 -15 -6 -22 -33 -26 -57 -9 -13 9 -13 10
2 6 11 -4 18 1 22 16 4 17 13 22 41 23 24 0 35 -4 35 -13z m-1256 -18 c-4 -8
-13 -15 -20 -15 -8 0 -17 -7 -20 -15 -8 -21 -28 -19 -49 5 -18 20 -17 20 23
20 22 0 44 5 47 10 10 16 25 12 19 -5z m1716 -21 c29 -14 69 -74 48 -74 -36 0
-84 21 -85 37 -1 10 -4 31 -6 48 -4 23 -2 26 7 14 6 -8 22 -19 36 -25z m-1714
-59 c0 -23 -4 -35 -13 -35 -8 0 -13 8 -11 17 2 10 -3 18 -11 18 -22 0 -25 23
-4 28 35 9 38 7 39 -28z m1834 -18 c0 -14 -5 -17 -22 -11 -27 8 -38 22 -38 47
0 17 1 17 30 0 17 -9 30 -26 30 -36z m-1895 -45 c-8 -8 -25 10 -40 41 l-16 32
30 -34 c17 -19 29 -37 26 -39z m840 33 c67 -18 150 -69 184 -115 35 -48 54
-110 39 -128 -31 -37 -270 -125 -287 -106 -13 13 -42 156 -56 267 l-12 97 37
0 c20 0 63 -7 95 -15z m-11692 -12 c3 -5 2 -32 0 -60 -5 -50 -7 -53 -34 -53
-22 0 -29 5 -29 19 0 38 -56 33 -71 -6 -5 -13 -9 -38 -9 -54 0 -29 1 -29 55
-29 48 0 55 -3 55 -19 0 -41 -11 -51 -56 -51 l-44 0 0 -110 0 -110 30 0 c28 0
30 -3 30 -35 l0 -35 -83 0 c-46 0 -86 2 -89 5 -2 3 -3 18 0 35 3 21 10 30 23
30 17 0 19 9 19 109 l0 110 -32 3 c-29 3 -33 7 -36 36 -3 30 -2 32 30 32 33 0
34 1 30 34 -9 81 36 136 113 136 19 0 35 5 35 10 0 12 57 14 63 3z m-3179
-110 l-2 -92 32 16 c17 9 53 17 79 17 41 1 52 -3 72 -26 28 -32 39 -110 29
-207 -6 -68 -6 -69 17 -73 27 -3 39 -45 17 -59 -7 -5 -43 -9 -80 -9 -66 0 -68
1 -68 25 0 14 9 30 20 37 18 11 20 24 20 110 0 125 -17 145 -97 118 -30 -11
-30 -11 -37 -111 -4 -55 -4 -104 -1 -109 3 -6 15 -10 26 -10 19 0 24 -15 13
-44 -5 -13 -22 -16 -80 -16 l-74 0 0 31 c0 22 5 32 20 36 19 5 20 14 20 200
l0 194 -22 -3 c-19 -2 -24 2 -26 29 -3 30 -1 32 35 36 92 10 88 13 87 -90z
m3797 -1 l-3 -94 28 15 c47 24 93 30 125 17 48 -20 59 -54 59 -185 0 -110 1
-115 21 -115 17 0 20 -5 17 -32 l-3 -33 -72 -3 -73 -3 0 30 c0 21 6 32 20 36
18 6 20 15 20 98 0 131 -16 151 -101 125 l-39 -11 0 -109 c0 -98 2 -108 18
-108 26 0 30 -6 24 -35 -4 -24 -8 -25 -78 -25 l-74 0 0 35 c0 24 5 35 15 35
12 0 15 18 15 103 0 57 3 146 7 196 l6 93 -24 -4 c-21 -3 -24 2 -27 29 -3 29
-1 32 30 36 18 2 47 4 63 3 l30 -1 -4 -93z m10185 76 c16 -12 31 -23 34 -25 2
-2 -2 -8 -10 -13 -13 -8 -13 -10 1 -10 9 0 19 -7 23 -15 3 -8 1 -15 -4 -15 -6
0 -10 5 -10 10 0 6 -4 9 -9 8 -4 -2 -30 12 -56 31 -42 30 -46 36 -29 42 28 11
29 11 60 -13z m1866 -11 c44 -18 53 -50 42 -140 -4 -34 -7 -69 -5 -78 2 -17
-127 -81 -187 -92 -40 -8 -44 -1 -66 143 -9 58 -21 120 -26 139 -5 19 -7 39
-3 44 9 15 201 2 245 -16z m-16198 -3 c87 -2 160 -5 162 -7 3 -2 1 -36 -2 -76
l-7 -71 -33 0 c-34 0 -34 1 -34 45 l0 45 -40 0 -40 0 0 -175 0 -175 35 0 c34
0 35 -1 35 -40 l0 -40 -105 0 -105 0 0 40 c0 39 1 40 36 40 l37 0 -7 53 c-3
28 -6 105 -6 170 l0 117 -40 0 -40 0 0 -40 c0 -39 -1 -40 -35 -40 l-35 0 0 86
0 86 33 -7 c17 -5 103 -9 191 -11z m1580 -13 c67 -42 84 -153 35 -222 -26 -36
-112 -63 -180 -57 l-49 5 0 -68 0 -69 41 0 c39 0 40 -1 37 -32 l-3 -33 -102
-3 -103 -3 0 36 c0 32 2 35 30 35 l30 0 0 180 0 180 -31 0 c-28 0 -30 2 -27
33 3 31 5 32 58 38 30 4 94 6 142 4 68 -2 94 -7 122 -24z m604 -62 l-5 -49 68
0 69 0 0 -35 0 -35 -69 0 -70 0 -6 -55 c-10 -76 -2 -165 16 -176 23 -14 59
-11 59 6 0 10 11 15 35 15 l35 0 0 -49 c0 -47 -1 -49 -30 -53 -17 -3 -33 -1
-36 4 -3 4 -26 8 -50 8 -37 0 -51 6 -75 29 -29 29 -29 30 -29 149 0 117 0 119
-25 130 -35 16 -33 50 3 54 25 3 27 7 32 53 5 46 7 50 35 56 43 8 48 2 43 -52z
m1662 6 l0 -55 65 0 65 0 0 -35 0 -35 -70 0 -70 0 0 -108 c0 -71 4 -112 12
-120 17 -17 55 -15 62 3 3 9 18 15 36 15 29 0 30 -1 30 -49 0 -45 -2 -49 -27
-54 -16 -3 -32 -1 -38 4 -5 5 -28 9 -51 9 -31 0 -51 7 -71 24 -28 24 -28 25
-28 150 0 121 -1 125 -22 131 -16 4 -23 13 -23 29 0 18 6 25 23 28 19 3 23 11
27 53 5 51 8 54 73 64 4 0 7 -24 7 -54z m12590 -14 c0 -5 -9 -7 -20 -4 -11 3
-20 7 -20 9 0 2 9 4 20 4 11 0 20 -4 20 -9z m-13810 -76 c0 -62 2 -61 -80 -41
-72 16 -104 9 -108 -27 -4 -31 11 -40 98 -57 30 -6 65 -17 77 -25 46 -31 38
-137 -13 -170 -18 -11 -46 -17 -90 -16 -50 0 -64 -3 -64 -14 0 -10 -11 -15
-34 -15 -42 0 -43 2 -47 65 -3 48 -2 50 27 56 24 4 34 2 43 -13 8 -13 23 -18
59 -18 53 0 72 12 72 46 0 25 -4 27 -94 44 -43 9 -68 21 -89 42 -27 26 -29 34
-25 79 3 28 13 58 23 69 25 28 87 43 129 31 27 -7 36 -6 40 5 3 8 20 14 41 14
l35 0 0 -55z m-1721 34 c40 -14 61 -54 61 -117 0 -73 -27 -94 -130 -100 -76
-4 -80 -6 -80 -28 0 -42 33 -64 95 -64 38 0 57 4 63 15 4 9 21 17 38 18 28 2
29 1 32 -52 2 -37 -1 -57 -10 -62 -20 -13 -68 -11 -68 4 0 8 -23 12 -79 12
-70 0 -82 3 -104 24 -48 44 -61 205 -23 278 35 70 123 100 205 72z m1064 -29
c21 -24 27 -40 27 -76 0 -84 -26 -105 -140 -113 -73 -6 -75 -7 -72 -31 5 -40
37 -60 96 -60 39 0 56 5 69 20 26 31 53 26 61 -11 10 -53 7 -87 -10 -93 -27
-10 -64 -7 -64 7 0 8 -23 12 -79 12 -70 0 -82 3 -105 24 -31 30 -46 77 -46
151 0 147 62 216 185 205 40 -4 55 -10 78 -35z m1166 15 c49 -25 65 -67 65
-170 1 -99 -12 -135 -55 -168 -38 -28 -110 -33 -164 -13 -62 24 -85 74 -85
185 0 114 26 165 95 184 32 9 112 -1 144 -18z m1570 14 c40 -14 61 -54 61
-117 0 -73 -27 -94 -130 -100 -76 -4 -80 -6 -80 -28 0 -42 33 -64 95 -64 38 0
57 4 63 15 4 9 21 17 38 18 28 2 29 1 32 -52 2 -37 -1 -57 -10 -62 -20 -13
-68 -11 -68 4 0 8 -23 12 -79 12 -70 0 -82 3 -104 24 -48 44 -61 205 -23 278
35 70 123 100 205 72z m10851 -54 c10 -12 8 -14 -8 -10 -15 3 -19 -1 -15 -16
3 -10 0 -19 -6 -19 -6 0 -11 11 -11 23 0 38 18 48 40 22z m-23 -149 c-3 -8 1
-20 9 -26 8 -7 14 -18 14 -24 0 -6 -4 -5 -9 3 -5 7 -14 11 -20 7 -7 -5 -8 -1
-4 10 4 12 3 15 -5 10 -7 -4 -12 -16 -12 -27 0 -10 -4 -19 -9 -19 -5 0 -12
-12 -16 -27 -5 -21 -8 -24 -16 -12 -5 7 -9 9 -9 3 0 -20 28 -36 52 -29 18 5
20 4 8 -4 -8 -6 -10 -11 -4 -11 6 0 16 -10 23 -22 6 -13 10 -16 7 -6 -6 23 4
30 22 15 13 -9 14 -9 8 1 -4 6 -3 12 2 12 9 0 26 55 23 72 -1 9 29 -1 48 -16
12 -9 13 -8 6 4 -8 13 -7 13 11 0 41 -30 85 -84 103 -125 5 -11 29 -39 55 -62
25 -23 46 -47 46 -53 0 -6 4 -9 9 -5 6 3 15 -4 21 -15 6 -11 17 -20 26 -20 8
0 17 -6 20 -14 3 -8 14 -16 25 -19 25 -7 25 -27 -1 -27 -11 0 -20 5 -20 11 0
6 -6 9 -14 6 -8 -3 -16 2 -19 15 -3 11 -10 17 -15 14 -15 -9 -43 4 -35 17 3 6
1 7 -6 3 -8 -5 -6 -15 8 -34 25 -36 38 -91 41 -182 5 -112 4 -129 -5 -200 -13
-108 -12 -141 8 -164 17 -19 17 -21 2 -24 -13 -3 -16 -11 -11 -32 3 -19 1 -30
-9 -34 -8 -3 -14 -2 -14 2 5 28 -6 49 -41 81 -22 20 -43 48 -46 61 -13 62 -16
100 -7 100 6 0 10 27 9 61 -1 45 3 64 15 72 26 20 45 115 34 183 -5 37 -17 57
-63 106 -113 121 -157 162 -171 159 -12 -2 -13 0 -2 12 9 12 9 17 0 23 -8 4
-9 3 -5 -5 5 -8 0 -10 -19 -7 -24 4 -25 3 -13 -12 7 -9 18 -20 23 -24 6 -5 3
-8 -7 -8 -9 0 -23 -3 -31 -6 -8 -3 -22 2 -31 11 -9 9 -16 13 -16 8 0 -4 -5 -1
-10 7 -8 13 -10 12 -10 -4 0 -11 -5 -16 -13 -13 -7 3 -24 -8 -36 -24 -15 -18
-33 -29 -50 -30 -23 0 -24 -1 -6 -9 22 -9 21 -10 -12 -14 -13 -2 -26 -6 -30
-11 -5 -4 0 -5 10 -2 9 4 17 2 17 -3 0 -6 -9 -10 -21 -10 -11 0 -18 -4 -15 -9
10 -16 -26 -22 -43 -7 -9 8 -20 16 -26 18 -5 2 -9 8 -7 13 6 18 61 67 70 61 5
-3 6 9 4 26 -4 26 -2 30 12 25 10 -4 16 -1 16 8 0 8 7 15 15 15 19 0 35 31 35
69 0 17 5 31 10 31 6 0 10 5 10 10 0 20 51 62 76 64 13 0 24 4 24 9 0 4 3 7 6
7 3 0 4 -6 1 -14z m-137 -96 c0 -5 -2 -10 -4 -10 -3 0 -8 5 -11 10 -3 6 -1 10
4 10 6 0 11 -4 11 -10z m-107 -266 c-2 -5 -7 -9 -13 -8 -27 3 -31 5 -26 13 8
12 42 7 39 -5z m-10522 -113 c-2 -77 0 -93 11 -84 28 23 98 35 135 22 50 -16
63 -54 63 -189 0 -104 1 -110 21 -110 17 0 20 -5 17 -32 l-3 -33 -64 -3 c-35
-2 -69 -1 -76 2 -19 7 -6 54 16 61 17 6 19 17 19 93 0 130 -24 159 -105 132
l-35 -12 0 -109 c0 -104 1 -109 21 -109 16 0 20 -5 17 -27 -3 -27 -5 -28 -67
-31 -35 -2 -69 -1 -76 2 -16 6 -7 66 11 66 11 0 14 28 14 143 0 78 3 166 7
196 l6 54 -26 -7 c-25 -6 -27 -4 -27 28 0 32 3 35 33 39 17 2 45 4 61 3 l29
-1 -2 -94z m10489 90 c0 -6 -4 -12 -8 -15 -5 -3 -9 1 -9 9 0 8 4 15 9 15 4 0
8 -4 8 -9z m-13575 -41 c0 -29 -5 -36 -28 -44 -34 -12 -61 1 -65 33 -5 34 16
52 57 49 34 -3 36 -5 36 -38z m3915 -102 c0 -79 3 -180 7 -225 6 -79 7 -83 29
-83 21 0 24 -5 24 -35 l0 -35 -95 0 -95 0 0 35 c0 32 2 35 30 35 l30 0 0 185
0 185 -25 0 c-22 0 -25 4 -25 40 l0 40 60 0 60 0 0 -142z m4415 103 c0 -40
-21 -57 -58 -47 -30 7 -43 37 -27 66 9 17 19 20 48 18 35 -3 37 -5 37 -37z
m-6589 18 c29 -8 54 -23 74 -46 26 -29 30 -41 30 -94 0 -111 -47 -152 -177
-153 l-73 -1 0 -67 0 -68 41 0 c38 0 41 -2 35 -22 -3 -13 -6 -29 -6 -35 0 -10
-27 -13 -100 -13 l-100 0 0 35 c0 32 2 35 30 35 l30 0 0 180 0 180 -31 0 c-28
0 -30 2 -27 33 3 31 5 32 58 38 96 10 170 9 216 -2z m5637 0 l38 2 -3 -73 -3
-73 -35 0 c-33 0 -35 2 -40 40 l-5 40 -56 0 c-65 0 -89 -15 -89 -55 0 -34 17
-49 115 -98 99 -49 126 -77 132 -134 10 -98 -54 -151 -174 -146 -54 3 -73 0
-73 -9 0 -8 -14 -13 -39 -13 -35 0 -39 3 -45 31 -3 17 -6 51 -6 75 l0 44 40 0
c38 0 40 -2 40 -30 l0 -30 74 0 c80 0 99 10 99 55 0 37 -18 52 -112 100 -92
46 -125 74 -134 116 -15 60 35 139 99 159 16 5 54 6 84 3 30 -3 72 -5 93 -4z
m-8985 -171 c32 -95 65 -190 71 -210 9 -27 18 -38 32 -38 17 0 20 -6 17 -37
l-3 -38 -82 -3 -83 -3 0 35 c0 29 4 37 23 41 22 6 23 9 13 46 l-10 39 -82 0
c-81 0 -82 0 -87 -27 -3 -16 -9 -36 -12 -45 -6 -14 -2 -18 20 -18 24 0 26 -3
23 -32 l-3 -33 -77 -3 -78 -3 0 40 c0 33 4 40 21 43 17 2 26 19 44 78 13 41
42 135 65 208 l41 132 43 0 44 0 60 -172z m7356 141 c7 -39 1 -49 -30 -49
l-24 0 0 -175 0 -175 33 0 c17 0 49 3 70 6 32 6 37 10 37 34 0 23 5 29 32 34
41 8 48 -3 48 -85 l0 -67 -31 -4 c-17 -3 -33 0 -35 6 -3 8 -48 10 -145 8
l-140 -4 3 33 c2 24 9 35 23 38 11 2 23 8 27 15 4 6 8 84 8 174 l0 162 -25 0
c-22 0 -25 4 -25 40 l0 40 84 0 84 0 6 -31z m8266 -3 c0 -11 -19 -15 -25 -6
-3 5 1 10 9 10 9 0 16 -2 16 -4z m509 -43 c-2 -24 -2 -25 -6 -5 -3 13 -9 19
-15 16 -7 -4 -8 -2 -4 4 13 21 26 13 25 -15z m-24 -33 c-3 -5 -14 -10 -23 -10
-15 0 -15 2 -2 10 20 13 33 13 25 0z m-12335 -55 c0 -62 2 -61 -80 -41 -75 17
-105 9 -105 -29 0 -29 3 -30 84 -51 95 -24 121 -46 121 -99 0 -85 -38 -118
-135 -116 -47 0 -64 -3 -62 -12 3 -17 -64 -22 -74 -5 -5 7 -9 34 -9 59 0 44 1
47 31 51 22 4 33 0 40 -14 7 -14 21 -18 57 -18 53 0 72 12 72 46 0 24 -5 27
-92 44 -31 6 -68 20 -82 31 -49 38 -42 139 11 174 28 19 83 24 126 12 15 -4
27 -4 26 0 -3 19 3 23 36 23 l35 0 0 -55z m-3142 9 c20 -23 22 -35 22 -150 l0
-124 26 0 c23 0 25 -3 22 -37 -2 -23 -8 -38 -15 -37 -7 1 -33 2 -58 3 l-45 1
0 134 c0 154 -7 172 -64 160 -17 -3 -34 -8 -38 -11 -5 -2 -8 -53 -8 -114 0
-102 1 -109 20 -109 16 0 20 -7 20 -30 l0 -30 -70 0 -70 0 0 30 c0 20 5 30 15
30 12 0 15 18 15 99 0 82 -3 103 -19 122 -19 23 -20 24 -63 9 l-43 -15 -3
-102 c-3 -98 -2 -103 18 -103 16 0 20 -6 20 -35 l0 -36 -72 3 -73 3 -3 33 c-3
27 0 32 17 32 20 0 21 6 21 105 l0 105 -30 0 c-28 0 -30 2 -30 40 l0 40 49 0
c41 0 50 -3 54 -21 5 -18 8 -19 27 -7 13 7 32 19 44 25 32 19 90 16 117 -6 23
-18 25 -18 49 -1 52 37 112 35 148 -6z m391 9 c32 -24 48 -88 35 -136 -13 -45
-61 -67 -148 -67 l-68 0 7 -27 c11 -48 33 -63 87 -63 35 0 58 6 75 20 45 35
59 27 67 -37 7 -62 1 -73 -46 -73 -16 0 -28 5 -28 13 0 9 -17 12 -68 9 -125
-7 -162 35 -162 180 1 124 27 172 109 199 40 13 110 3 140 -18z m231 -2 l0
-28 47 23 c25 13 64 24 85 24 l38 0 0 -71 0 -70 -37 3 c-33 3 -38 7 -41 31 -3
28 -11 31 -49 21 -22 -6 -23 -11 -23 -110 l0 -104 29 0 c23 0 30 -5 35 -26 4
-15 3 -30 -1 -35 -4 -4 -46 -9 -93 -11 l-85 -3 -3 38 c-3 34 -1 37 22 37 l26
0 0 104 0 105 -27 3 c-25 3 -28 8 -31 45 l-3 42 48 4 c26 2 51 4 56 5 4 1 7
-11 7 -27z m718 -44 l3 -67 -36 0 c-32 0 -35 2 -35 30 0 28 -2 30 -40 30 -69
0 -100 -56 -86 -158 10 -75 71 -107 116 -62 11 11 31 20 44 20 25 0 36 -28 36
-91 0 -27 -3 -29 -40 -29 -22 0 -40 5 -40 10 0 6 -27 10 -61 10 -53 0 -64 3
-89 28 -33 34 -45 91 -38 191 9 128 47 161 183 157 l80 -3 3 -66z m162 57 c0
-11 5 -14 18 -9 88 34 137 27 169 -22 15 -23 18 -46 15 -156 l-3 -128 23 3
c20 3 23 -2 23 -27 0 -27 -4 -30 -43 -38 -51 -10 -74 -4 -66 18 8 19 4 19 -32
0 -43 -22 -126 -19 -157 5 -35 28 -49 81 -34 127 18 55 51 73 140 80 70 5 77
8 77 28 0 28 -20 54 -45 56 -47 5 -67 -2 -72 -22 -5 -16 -12 -19 -42 -17 -36
3 -36 3 -39 55 -3 47 -1 52 20 56 43 8 48 7 48 -9z m584 2 c49 -20 60 -63 53
-198 l-6 -108 25 0 c20 0 24 -5 24 -29 0 -27 -3 -30 -51 -36 -28 -4 -55 -3
-60 2 -4 4 -10 71 -11 148 l-3 140 -32 3 c-17 2 -46 -4 -62 -13 l-31 -16 0
-94 c0 -89 1 -95 21 -95 17 0 20 -5 17 -32 l-3 -33 -64 -3 c-82 -4 -89 -1 -83
37 3 22 10 31 23 31 17 0 19 9 19 104 l0 105 -27 3 c-22 2 -29 9 -31 32 -5 37
4 44 61 52 46 7 47 6 47 -20 0 -30 6 -32 31 -10 16 14 82 42 102 44 4 0 23 -6
41 -14z m1782 -22 c3 -17 4 -46 2 -65 -3 -30 -7 -34 -35 -37 -31 -3 -33 -1
-33 27 0 30 -2 31 -43 31 -67 0 -82 -23 -82 -122 0 -73 2 -82 25 -100 27 -22
78 -18 93 7 4 8 21 15 37 15 26 0 30 -4 30 -29 0 -16 3 -43 6 -60 6 -31 6 -31
-35 -31 -22 0 -41 5 -41 10 0 6 -26 10 -58 10 -102 0 -132 43 -132 187 0 152
38 192 180 189 l80 -1 6 -31z m763 11 c49 -25 65 -67 65 -170 1 -99 -12 -135
-55 -168 -38 -28 -110 -33 -164 -13 -62 24 -85 74 -85 185 0 114 26 165 95
184 32 9 112 -1 144 -18z m610 0 c49 -25 65 -67 65 -170 1 -99 -12 -135 -55
-168 -38 -28 -110 -33 -164 -13 -62 24 -85 74 -85 185 0 114 26 165 95 184 32
9 112 -1 144 -18z m471 10 c4 -2 5 -18 2 -36 -4 -28 -7 -30 -34 -25 -28 6 -28
5 -13 -16 21 -31 19 -77 -5 -116 -25 -40 -54 -52 -131 -52 -56 0 -59 -1 -59
-25 0 -25 1 -25 85 -25 79 0 87 -2 117 -29 26 -23 33 -37 33 -68 0 -86 -59
-128 -182 -128 -72 0 -84 3 -107 24 -30 28 -34 67 -10 113 11 22 13 33 5 41
-16 16 -13 55 6 88 16 26 16 29 0 47 -63 70 -27 189 65 213 31 8 213 3 228 -6z
m1320 -1 c0 -11 5 -14 18 -9 88 34 137 27 169 -22 15 -23 18 -46 15 -156 l-3
-128 23 3 c20 3 23 -2 23 -27 0 -27 -4 -30 -43 -38 -51 -10 -74 -4 -66 18 8
19 4 19 -32 0 -43 -22 -126 -19 -157 5 -35 28 -49 81 -34 127 18 55 51 73 140
80 70 5 77 8 77 28 0 28 -20 54 -45 56 -47 5 -67 -2 -72 -22 -5 -16 -12 -19
-42 -17 -36 3 -36 3 -39 55 -3 47 -1 52 20 56 43 8 48 7 48 -9z m1679 -9 c49
-25 65 -67 65 -170 1 -99 -12 -135 -55 -168 -38 -28 -110 -33 -164 -13 -62 24
-85 74 -85 185 0 114 26 165 95 184 32 9 112 -1 144 -18z m405 -39 c3 -32 3
-62 0 -67 -3 -5 -21 -9 -40 -9 -31 0 -34 2 -34 30 0 28 -2 30 -37 30 -64 0
-83 -28 -83 -119 0 -72 14 -107 46 -115 32 -9 74 3 74 20 0 9 12 14 35 14 l35
0 0 -60 0 -60 -35 0 c-19 0 -35 5 -35 10 0 6 -26 10 -59 10 -80 0 -115 28
-131 106 -15 73 -4 175 24 217 31 46 58 56 151 54 l83 -2 6 -59z m550 40 c35
-22 52 -88 36 -139 -14 -49 -54 -67 -146 -67 l-66 0 6 -32 c3 -18 14 -39 23
-45 24 -19 120 -17 130 2 5 8 23 18 41 21 l33 7 -3 -64 -3 -64 -35 0 c-20 0
-34 5 -33 11 1 8 -19 10 -66 6 -124 -8 -164 35 -164 178 0 86 16 144 49 171
47 39 150 47 198 15z m-8684 -141 c0 -148 1 -155 20 -155 15 0 20 -7 20 -25 0
-30 -4 -32 -92 -39 l-68 -5 0 34 c0 28 4 35 19 35 17 0 20 11 26 104 4 57 4
109 1 115 -4 6 -18 11 -32 11 -22 0 -25 4 -22 32 3 35 22 45 91 47 l37 1 0
-155z m2368 118 c3 -30 1 -33 -23 -33 -17 0 -26 -5 -23 -12 3 -7 20 -57 39
-110 18 -54 36 -98 40 -98 5 0 69 198 69 213 0 3 -9 3 -20 0 -18 -5 -20 0 -20
36 l0 41 80 0 c57 0 80 -4 80 -12 0 -31 -14 -58 -29 -58 -12 0 -35 -54 -91
-216 -41 -118 -78 -220 -81 -226 -6 -10 -79 7 -79 18 0 3 14 32 31 65 26 52
28 63 16 72 -8 7 -38 72 -67 145 -41 104 -56 132 -71 132 -15 0 -19 7 -19 33
0 19 3 37 7 41 4 4 41 5 83 4 l75 -3 3 -32z m2552 2 c0 -28 -4 -35 -20 -35
-11 0 -20 -4 -20 -8 0 -5 17 -58 39 -117 l39 -109 36 112 c20 61 36 113 36
115 0 2 -10 3 -22 3 -20 -1 -23 4 -23 34 l0 35 78 3 77 3 0 -36 c0 -27 -4 -35
-18 -35 -14 0 -34 -44 -98 -225 l-79 -225 -30 6 c-50 10 -53 20 -18 85 29 57
30 62 15 77 -10 10 -39 74 -67 144 -39 99 -54 128 -70 130 -11 2 -19 6 -17 11
1 4 2 21 2 37 l0 30 80 0 80 0 0 -35z m1558 -3 c3 -27 -1 -35 -17 -39 -12 -3
-21 -8 -21 -12 0 -11 48 -183 53 -187 2 -2 16 55 31 128 15 72 29 135 32 140
3 4 22 8 42 8 l38 0 35 -142 35 -143 22 93 c27 115 27 122 2 122 -16 0 -20 7
-20 35 l0 35 75 0 75 0 0 -35 c0 -28 -5 -38 -22 -44 -18 -6 -28 -31 -58 -147
l-37 -139 -37 -6 c-21 -3 -39 -2 -43 4 -3 6 -20 67 -38 136 l-32 126 -27 -115
c-15 -63 -29 -123 -32 -132 -4 -13 -16 -18 -44 -18 l-38 0 -46 145 c-39 122
-50 145 -66 145 -17 0 -20 7 -20 40 l0 41 78 -3 77 -3 3 -33z m1852 -117 c0
-148 1 -155 20 -155 16 0 20 -7 20 -30 0 -30 0 -30 -60 -32 -33 -1 -68 -2 -77
-2 -13 -1 -19 8 -21 32 -3 29 -1 32 23 32 l26 0 -3 113 -3 112 -27 3 c-29 3
-32 11 -22 49 6 23 24 29 87 32 l37 1 0 -155z m620 120 c0 -31 -3 -35 -26 -35
-21 0 -25 -3 -19 -17 4 -10 20 -54 35 -98 15 -44 31 -89 36 -99 5 -14 16 7 40
85 40 123 40 129 14 122 -18 -5 -20 0 -20 36 l0 41 80 0 80 0 0 -30 c0 -22 -6
-33 -22 -39 -19 -7 -36 -47 -97 -222 -41 -118 -78 -218 -82 -223 -7 -8 -79 11
-79 21 0 4 15 34 34 68 31 56 32 63 17 72 -9 6 -39 68 -66 138 -38 97 -55 129
-72 136 -17 6 -23 17 -23 37 0 16 3 32 7 35 3 4 42 7 85 7 l78 0 0 -35z m5737
-37 c-3 -8 -6 -5 -6 6 -1 11 2 17 5 13 3 -3 4 -12 1 -19z m-17 -7 c0 -4 -9 -7
-20 -7 -20 0 -25 7 -14 19 7 7 34 -2 34 -12z m-130 -41 c0 -5 -5 -10 -11 -10
-5 0 -7 5 -4 10 3 6 8 10 11 10 2 0 4 -4 4 -10z m103 -7 c-7 -17 24 -46 39
-37 10 6 10 4 0 -8 -15 -19 -42 -13 -42 8 0 8 -6 14 -14 14 -14 0 -29 24 -19
33 10 11 41 3 36 -10z m-9163 0 c0 -5 -3 -18 -6 -30 -6 -22 -10 -23 -140 -23
-134 0 -134 0 -134 23 0 13 3 27 7 30 9 10 273 9 273 0z m9032 -21 c3 -10 0
-19 -6 -19 -7 0 -12 9 -12 19 0 10 3 18 7 18 4 0 9 -8 11 -18z m-71 -19 c13
-16 12 -17 -3 -4 -10 7 -18 15 -18 17 0 8 8 3 21 -13z m-41 -33 c0 -5 -2 -10
-4 -10 -3 0 -8 5 -11 10 -3 6 -1 10 4 10 6 0 11 -4 11 -10z m75 1 c3 -5 1 -12
-5 -16 -5 -3 -10 1 -10 9 0 18 6 21 15 7z m362 3 c-3 -3 -12 -4 -19 -1 -8 3
-5 6 6 6 11 1 17 -2 13 -5z m-202 -14 c3 -5 1 -10 -4 -10 -6 0 -11 5 -11 10 0
6 2 10 4 10 3 0 8 -4 11 -10z m75 0 c0 -5 -4 -10 -10 -10 -5 0 -10 5 -10 10 0
6 5 10 10 10 6 0 10 -4 10 -10z m-186 -21 c-3 -5 -10 -7 -15 -3 -5 3 -7 10 -3
15 3 5 10 7 15 3 5 -3 7 -10 3 -15z m320 -4 c-4 -8 -8 -15 -10 -15 -2 0 -4 7
-4 15 0 8 4 15 10 15 5 0 7 -7 4 -15z m100 -25 c-2 -22 0 -40 5 -40 4 0 6 -11
3 -25 -7 -36 -15 -23 -17 29 -2 24 -6 50 -10 57 -5 8 -4 10 3 5 7 -4 12 -2 12
3 0 6 2 11 4 11 2 0 2 -18 0 -40z m-320 24 c9 -3 16 -10 16 -14 0 -12 -33 -5
-38 8 -4 14 0 15 22 6z m161 -15 c-10 -15 -25 -10 -19 6 4 8 10 12 15 9 5 -3
7 -10 4 -15z m110 11 c3 -5 1 -10 -4 -10 -6 0 -11 5 -11 10 0 6 2 10 4 10 3 0
8 -4 11 -10z m-545 -11 c0 -5 -4 -8 -9 -5 -5 4 -12 0 -14 -6 -3 -8 -6 -6 -6 5
-1 9 6 17 14 17 8 0 15 -5 15 -11z m120 1 c0 -5 -2 -10 -4 -10 -3 0 -8 5 -11
10 -3 6 -1 10 4 10 6 0 11 -4 11 -10z m257 -4 c0 -8 -6 -12 -14 -9 -7 3 -10 9
-7 14 8 14 21 11 21 -5z m-307 -16 c0 -5 -2 -10 -4 -10 -3 0 -8 5 -11 10 -3 6
-1 10 4 10 6 0 11 -4 11 -10z m-100 -21 c0 -5 -4 -9 -10 -9 -5 0 -10 7 -10 16
0 8 5 12 10 9 6 -3 10 -10 10 -16z m465 11 c3 -5 1 -10 -4 -10 -6 0 -11 5 -11
10 0 6 2 10 4 10 3 0 8 -4 11 -10z m-448 -22 c-3 -8 -6 -5 -6 6 -1 11 2 17 5
13 3 -3 4 -12 1 -19z m230 -2 c-4 -9 -13 -13 -22 -10 -14 6 -13 8 2 19 21 16
28 12 20 -9z m327 9 c-4 -8 -7 -15 -9 -15 -2 0 -5 7 -9 15 -3 9 0 15 9 15 9 0
12 -6 9 -15z m-107 -27 c-3 -8 -6 -5 -6 6 -1 11 2 17 5 13 3 -3 4 -12 1 -19z
m-507 -30 c0 -4 -4 -8 -10 -8 -5 0 -10 4 -10 9 0 5 -3 18 -6 28 -5 16 -4 16
10 -1 9 -11 16 -23 16 -28z m291 5 c-9 -35 -31 -42 -31 -10 0 16 7 27 18 30 9
3 18 5 19 6 1 0 -2 -11 -6 -26z m194 18 c3 -5 2 -12 -3 -15 -5 -3 -9 1 -9 9 0
17 3 19 12 6z m90 -11 c3 -5 -1 -10 -10 -10 -9 0 -13 5 -10 10 3 6 8 10 10 10
2 0 7 -4 10 -10z m-225 -30 c0 -5 -2 -10 -4 -10 -3 0 -8 5 -11 10 -3 6 -1 10
4 10 6 0 11 -4 11 -10z m66 -17 c-10 -10 -19 5 -10 18 6 11 8 11 12 0 2 -7 1
-15 -2 -18z m-301 7 c3 -6 -1 -7 -9 -4 -18 7 -21 14 -7 14 6 0 13 -4 16 -10z
m89 -39 c8 -11 8 -13 -1 -8 -6 4 -14 1 -16 -5 -3 -7 -5 5 -5 27 0 22 3 31 5
20 3 -11 10 -26 17 -34z m-208 4 c-7 -29 -22 -33 -22 -6 0 11 4 17 8 15 4 -3
8 3 8 12 0 10 3 15 6 11 4 -3 4 -18 0 -32z m330 19 c-4 -11 -2 -15 7 -11 8 3
14 -1 14 -9 0 -7 -5 -10 -10 -7 -5 3 -13 -1 -18 -8 -6 -10 -8 -6 -5 11 3 14 5
28 5 33 1 4 4 7 7 7 3 0 3 -7 0 -16z m279 6 c3 -5 1 -10 -4 -10 -6 0 -11 5
-11 10 0 6 2 10 4 10 3 0 8 -4 11 -10z m43 -21 c-3 -8 -7 -3 -11 10 -4 17 -3
21 5 13 5 -5 8 -16 6 -23z m-171 -8 c0 -11 -5 -18 -9 -15 -4 3 -5 11 -1 19 7
21 12 19 10 -4z m81 -6 c-3 -3 -9 2 -12 12 -6 14 -5 15 5 6 7 -7 10 -15 7 -18z
m-298 -9 c-5 -13 -6 -28 -2 -32 4 -5 1 -4 -5 1 -13 11 -7 55 8 55 5 0 4 -11
-1 -24z m274 -2 c3 -8 2 -12 -4 -9 -6 3 -10 10 -10 16 0 14 7 11 14 -7z m56
-9 c0 -7 5 -16 10 -18 6 -3 5 -4 -1 -3 -7 1 -16 12 -20 25 -6 14 -5 20 1 16 6
-3 10 -12 10 -20z m-622 -19 c-7 -8 -15 -12 -17 -11 -5 6 10 25 20 25 5 0 4
-6 -3 -14z m602 -16 c12 -12 18 -25 15 -30 -7 -12 -26 -13 -24 -2 4 26 -2 32
-21 22 -23 -12 -26 -6 -7 15 15 18 14 18 37 -5z m-585 0 c3 -5 1 -10 -4 -10
-6 0 -11 5 -11 10 0 6 2 10 4 10 3 0 8 -4 11 -10z m325 -11 c0 -5 -6 -9 -14
-9 -19 0 -26 -21 -14 -42 5 -12 5 -18 -2 -18 -5 0 -10 -4 -10 -10 0 -5 8 -7
18 -4 13 5 14 4 3 -4 -21 -15 -45 -4 -30 14 6 7 8 18 4 23 -8 14 23 73 35 66
6 -4 10 -10 10 -16z m423 -4 c-3 -9 -8 -14 -10 -11 -3 3 -2 9 2 15 9 16 15 13
8 -4z m-126 -27 c-3 -7 -5 -2 -5 12 0 14 2 19 5 13 2 -7 2 -19 0 -25z m-124 2
c-5 -18 -33 -30 -33 -14 0 5 29 32 37 34 0 0 -1 -9 -4 -20z m207 -10 c0 -11
-7 -20 -15 -20 -13 0 -13 3 -3 20 7 11 14 20 15 20 2 0 3 -9 3 -20z m-840 -3
c0 -7 -10 -21 -21 -31 -17 -14 -24 -15 -33 -5 -8 9 -8 10 2 5 11 -7 17 5 13
27 -1 5 3 6 9 2 5 -3 10 -1 10 4 0 6 5 11 10 11 6 0 10 -6 10 -13z m357 -19
c-3 -7 -5 -2 -5 12 0 14 2 19 5 13 2 -7 2 -19 0 -25z m263 -8 c0 -5 -4 -10
-10 -10 -5 0 -10 5 -10 10 0 6 5 10 10 10 6 0 10 -4 10 -10z m57 4 c-3 -3 -12
-4 -19 -1 -8 3 -5 6 6 6 11 1 17 -2 13 -5z m-13292 -59 c0 -23 -5 -30 -25 -35
-45 -11 -54 -49 -55 -230 0 -180 10 -222 53 -228 17 -3 22 -10 22 -33 0 -27
-3 -29 -39 -29 -79 0 -105 69 -105 285 0 113 4 164 17 207 20 67 56 100 101
96 27 -3 31 -7 31 -33z m2170 11 c37 -37 49 -97 49 -256 1 -224 -31 -310 -115
-310 -37 0 -39 2 -39 30 0 22 5 30 18 30 52 0 79 115 68 295 -7 121 -19 163
-49 167 -17 2 -23 11 -25 36 -3 31 -2 32 33 32 25 0 43 -8 60 -24z m11201 12
c3 -4 -1 -5 -10 -4 -8 1 -18 5 -22 8 -3 4 1 5 10 4 8 -1 18 -5 22 -8z m-12751
-37 c0 -40 -21 -57 -58 -47 -30 7 -43 37 -27 66 9 17 19 20 48 18 35 -3 37 -5
37 -37z m12395 18 c0 -5 -4 -9 -10 -9 -5 0 -10 7 -10 16 0 8 5 12 10 9 6 -3
10 -10 10 -16z m-13936 -18 c67 -42 84 -153 35 -222 -26 -36 -112 -63 -180
-57 l-49 5 0 -68 0 -69 41 0 c39 0 40 -1 37 -32 l-3 -33 -102 -3 -103 -3 0 36
c0 32 2 35 30 35 l30 0 0 180 0 180 -31 0 c-28 0 -30 2 -27 33 3 31 5 32 58
38 30 4 94 6 142 4 68 -2 94 -7 122 -24z m2405 23 c17 -4 31 -12 31 -18 0 -6
-33 -73 -74 -148 l-73 -138 32 0 c18 0 47 3 64 6 30 6 31 8 31 60 l0 54 41 0
42 0 -7 -55 -6 -55 35 0 c32 0 35 -2 35 -30 0 -28 -3 -30 -35 -30 -35 0 -35 0
-35 -45 0 -41 2 -45 25 -45 21 0 25 -5 25 -30 l0 -30 -100 0 -100 0 0 35 c0
33 2 35 35 35 34 0 35 1 35 40 l0 40 -85 0 c-81 0 -86 1 -97 25 -10 22 -3 44
58 180 38 85 74 155 80 155 6 0 26 -3 43 -6z m11094 -9 c-3 -9 -8 -14 -10 -11
-3 3 -2 9 2 15 9 16 15 13 8 -4z m715 -2 c-2 -11 2 -17 10 -15 8 1 12 -1 9 -5
-7 -13 -20 -48 -21 -55 -1 -3 -5 -10 -10 -15 -5 -5 -6 -3 -2 5 4 7 2 12 -6 12
-10 0 -10 2 1 9 16 10 24 41 12 41 -4 0 -16 -9 -26 -20 -10 -11 -23 -20 -29
-20 -6 0 -6 4 2 8 7 5 10 15 7 24 -7 17 19 43 35 33 5 -3 10 -1 10 4 0 6 2 11
5 11 3 0 5 -8 3 -17z m-14681 -199 c57 -174 72 -208 91 -215 19 -7 23 -15 20
-41 l-3 -33 -82 -3 -83 -3 0 35 c0 29 4 37 24 42 23 5 24 7 12 42 l-13 37 -80
3 -81 3 -6 -28 c-4 -15 -9 -36 -12 -45 -3 -11 2 -17 18 -20 18 -2 23 -9 23
-33 l0 -30 -77 -3 -78 -3 0 41 c0 33 3 40 20 40 11 0 20 2 20 4 0 4 117 384
125 404 2 7 22 12 49 12 l45 0 68 -206z m890 0 c57 -174 72 -208 91 -215 19
-7 23 -15 20 -41 l-3 -33 -82 -3 -83 -3 0 35 c0 29 4 37 24 42 23 5 24 7 12
42 l-13 37 -80 3 -81 3 -6 -28 c-4 -15 -9 -36 -12 -45 -3 -11 2 -17 18 -20 18
-2 23 -9 23 -33 l0 -30 -77 -3 -78 -3 0 41 c0 33 3 40 20 40 11 0 20 2 20 4 0
4 117 384 125 404 2 7 22 12 49 12 l45 0 68 -206z m850 180 c15 -11 39 -41 53
-65 22 -39 25 -56 25 -144 0 -154 -42 -233 -141 -265 -36 -12 -229 -8 -242 4
-2 3 -1 21 2 40 5 28 10 33 26 29 19 -5 20 0 20 170 0 174 0 176 -22 179 -19
2 -24 10 -26 41 l-3 39 140 -4 c123 -3 143 -5 168 -24z m1554 -191 l-2 -213
45 0 c39 0 46 -3 46 -19 0 -11 3 -26 6 -35 5 -14 -10 -16 -135 -16 l-141 0 0
35 0 35 50 0 50 0 0 164 0 164 -52 -2 c-48 -1 -53 1 -56 22 -3 19 6 27 60 52
38 18 76 29 97 27 l34 -2 -2 -212z m11019 183 c-7 -7 -14 -6 -21 1 -6 6 -18 9
-25 6 -8 -3 -14 0 -14 5 0 15 32 20 52 8 11 -7 14 -14 8 -20z m-28 -21 c6 -28
-6 -34 -16 -9 -5 14 0 34 8 34 2 0 6 -11 8 -25z m255 19 c-3 -3 -12 -4 -19 -1
-8 3 -5 6 6 6 11 1 17 -2 13 -5z m-183 -13 c3 -5 -1 -11 -9 -15 -9 -3 -15 0
-15 9 0 16 16 20 24 6z m94 -5 c-7 -8 -15 -12 -17 -11 -5 6 10 25 20 25 5 0 4
-6 -3 -14z m150 2 c-3 -14 -24 -38 -32 -38 -8 0 -7 35 1 43 11 12 33 8 31 -5z
m142 2 c0 -5 -5 -10 -11 -10 -5 0 -7 5 -4 10 3 6 8 10 11 10 2 0 4 -4 4 -10z
m-517 -24 c3 -7 -1 -25 -8 -39 -7 -14 -11 -28 -7 -31 3 -3 0 -6 -6 -6 -17 0
-23 17 -8 23 10 4 13 16 11 36 -4 31 8 43 18 17z m167 4 c0 -5 -2 -10 -4 -10
-3 0 -8 5 -11 10 -3 6 -1 10 4 10 6 0 11 -4 11 -10z m134 -15 c-4 -8 -10 -15
-16 -15 -5 0 -7 4 -4 9 4 5 0 12 -6 14 -7 3 -3 6 9 6 16 1 21 -3 17 -14z
m-139 -1 c13 -6 14 -9 3 -16 -9 -7 -7 -8 9 -5 16 3 20 1 16 -10 -3 -8 -12 -12
-21 -8 -12 4 -13 3 -2 -10 11 -13 8 -15 -15 -15 -16 0 -25 3 -22 7 4 3 2 12
-4 19 -8 9 -7 17 3 28 16 18 13 17 33 10z m105 -41 c-11 -8 -18 -19 -15 -24 4
-5 1 -9 -4 -9 -6 0 -11 -7 -11 -15 0 -8 -4 -15 -9 -15 -5 0 -12 -8 -15 -18 -7
-22 -36 -25 -36 -4 0 9 3 13 6 9 9 -8 34 18 34 35 0 8 9 20 19 27 11 8 17 20
14 27 -3 9 2 11 17 7 l21 -6 -21 -14z m130 11 c0 -8 -5 -12 -10 -9 -6 4 -8 11
-5 16 9 14 15 11 15 -7z m-12610 -169 c0 -148 1 -155 20 -155 16 0 20 -7 20
-30 0 -30 0 -30 -60 -32 -33 -1 -68 -2 -77 -2 -13 -1 -19 8 -21 32 -3 29 -1
32 23 32 l26 0 -3 113 -3 112 -27 3 c-29 3 -32 11 -22 49 6 23 24 29 87 32
l37 1 0 -155z m230 120 c0 -29 -4 -35 -21 -35 -17 0 -19 -4 -13 -22 14 -46 73
-203 74 -198 1 3 16 52 34 110 l33 105 -24 3 c-21 3 -24 8 -21 35 l3 32 75 0
75 0 0 -35 c0 -28 -4 -36 -21 -38 -18 -3 -29 -26 -69 -143 -26 -78 -53 -143
-60 -145 -6 -3 -24 -6 -39 -7 -26 -2 -29 4 -88 146 -48 115 -65 147 -79 147
-15 0 -19 8 -19 40 l0 40 80 0 80 0 0 -35z m12093 8 c-4 -10 -2 -14 4 -10 6 4
16 0 23 -8 10 -12 9 -16 -5 -21 -20 -8 -61 28 -51 45 12 18 36 13 29 -6z m192
7 c-27 -12 -43 -12 -25 0 8 5 22 9 30 9 10 0 8 -3 -5 -9z m-329 -47 c-11 -11
-36 7 -36 27 0 20 0 20 21 -1 11 -11 18 -23 15 -26z m589 27 c3 -5 1 -10 -4
-10 -6 0 -11 5 -11 10 0 6 2 10 4 10 3 0 8 -4 11 -10z m-475 -20 c0 -5 -4 -10
-10 -10 -5 0 -10 5 -10 10 0 6 5 10 10 10 6 0 10 -4 10 -10z m185 -11 c-10
-15 -25 -10 -19 6 4 8 10 12 15 9 5 -3 7 -10 4 -15z m65 -14 c-8 -10 -9 -15
-1 -15 6 0 11 -5 11 -10 0 -6 -7 -6 -19 2 -10 6 -17 17 -14 25 3 7 10 10 16 6
7 -4 8 0 3 13 -6 15 -5 16 5 7 10 -10 9 -15 -1 -28z m70 25 c0 -5 -5 -10 -11
-10 -5 0 -7 5 -4 10 3 6 8 10 11 10 2 0 4 -4 4 -10z m-466 -32 c-3 -12 -15
-31 -25 -42 -11 -11 -19 -26 -19 -33 0 -8 -7 -16 -15 -19 -8 -4 -15 -12 -15
-20 0 -8 -7 -14 -15 -14 -8 0 -17 -11 -21 -25 -3 -14 -9 -23 -13 -20 -12 7
-52 -25 -46 -36 3 -5 -1 -6 -9 -3 -10 4 -16 1 -16 -8 0 -21 -37 -48 -57 -41
-16 6 -16 5 -4 -11 13 -16 13 -18 0 -16 -25 4 -49 0 -48 -7 4 -23 -3 -35 -16
-29 -14 5 -19 -4 -16 -31 2 -16 -16 -26 -24 -13 -3 5 -1 10 6 10 10 0 10 3 2
11 -8 8 -8 18 -1 35 11 24 28 33 28 14 0 -5 10 0 22 12 13 13 22 28 20 34 -3
15 36 25 42 10 2 -6 5 -3 5 7 1 9 6 17 12 17 6 0 17 7 25 15 12 12 13 15 2 16
-7 1 1 4 17 8 17 3 31 12 31 19 1 6 2 19 3 27 0 9 7 15 14 13 12 -3 57 31 57
44 0 3 -8 15 -17 24 -17 17 -17 18 0 11 9 -3 17 -2 17 3 0 6 9 10 20 10 11 0
20 6 20 13 0 15 20 37 33 37 4 0 5 -10 1 -22z m101 13 c3 -5 1 -12 -5 -16 -5
-3 -10 1 -10 9 0 18 6 21 15 7z m55 -11 c-6 -4 -11 -10 -11 -14 2 -13 -20 -58
-26 -53 -3 3 -14 -4 -23 -16 -10 -12 -21 -19 -25 -16 -3 4 1 14 10 22 8 9 15
22 15 31 0 8 5 18 12 22 7 4 8 3 4 -4 -4 -7 -2 -12 3 -12 11 0 15 15 12 34 -3
12 21 26 32 19 5 -3 4 -9 -3 -13z m145 -20 c3 -5 1 -10 -4 -10 -6 0 -11 5 -11
10 0 6 2 10 4 10 3 0 8 -4 11 -10z m295 -40 c0 -4 -8 -14 -17 -21 -17 -13 -17
-13 -3 5 14 18 13 19 -2 13 -12 -4 -18 -2 -18 7 0 9 7 12 20 9 11 -3 20 -9 20
-13z m-354 -6 c-1 -8 -8 -19 -15 -24 -10 -6 -10 -9 -1 -15 6 -4 17 -2 23 4 6
6 15 11 21 11 5 0 -1 -9 -14 -20 -17 -15 -26 -17 -36 -9 -10 8 -15 5 -20 -15
-3 -14 -11 -23 -16 -20 -6 4 -6 10 1 17 16 16 13 27 -6 27 -10 0 0 9 22 19 22
11 36 20 32 20 -5 1 -5 6 -2 11 9 15 14 12 11 -6z m124 6 c0 -5 -2 -10 -4 -10
-3 0 -8 5 -11 10 -3 6 -1 10 4 10 6 0 11 -4 11 -10z m120 -10 c0 -5 -5 -10
-11 -10 -5 0 -7 5 -4 10 3 6 8 10 11 10 2 0 4 -4 4 -10z m37 -5 c0 -8 -4 -12
-9 -9 -4 3 -8 9 -8 15 0 5 4 9 8 9 5 0 9 -7 9 -15z m-177 -20 c-6 -8 -9 -18
-6 -23 3 -5 -1 -9 -9 -9 -18 0 -19 19 -3 35 17 17 33 15 18 -3z m-284 -19 c6
-6 7 -15 2 -21 -4 -5 -22 -29 -38 -52 -17 -24 -34 -43 -38 -43 -7 0 -36 50
-33 58 3 7 16 -5 18 -16 4 -32 14 -23 11 10 -2 20 0 36 4 35 10 -3 37 36 32
45 -7 10 28 -3 42 -16z m67 -3 c-5 -12 -2 -15 10 -10 9 3 17 3 17 -2 0 -10
-40 -22 -51 -15 -5 3 -1 14 9 24 20 24 23 25 15 3z m414 -8 c0 -8 -4 -12 -9
-9 -5 3 -6 10 -3 15 9 13 12 11 12 -6z m-85 -27 c-7 -7 -12 -8 -12 -2 0 14 12
26 19 19 2 -3 -1 -11 -7 -17z m-345 -14 c-3 -4 -2 -14 3 -24 8 -14 5 -16 -14
-13 -18 4 -26 -1 -31 -16 -4 -12 -11 -18 -17 -15 -7 5 -9 1 -5 -9 3 -9 0 -18
-8 -21 -25 -9 -12 33 20 70 17 18 36 34 44 34 8 0 11 -3 8 -6z m77 -25 c-3 -5
-10 -7 -15 -3 -5 3 -7 10 -3 15 3 5 10 7 15 3 5 -3 7 -10 3 -15z m83 -21 c-3
-7 -5 -2 -5 12 0 14 2 19 5 13 2 -7 2 -19 0 -25z m-334 7 c-3 -9 -8 -14 -10
-11 -3 3 -2 9 2 15 9 16 15 13 8 -4z m22 -25 c3 -5 1 -10 -4 -10 -6 0 -11 5
-11 10 0 6 2 10 4 10 3 0 8 -4 11 -10z m-45 -11 c0 8 3 11 6 8 4 -4 2 -13 -4
-20 -7 -8 -9 -17 -5 -20 3 -4 -1 -7 -10 -7 -23 0 -30 17 -15 34 9 10 15 11 20
2 5 -7 8 -7 8 3z m50 -17 c0 -14 -11 -21 -26 -15 -8 3 -11 9 -8 14 7 11 34 12
34 1z m40 -32 c-6 -11 -12 -20 -13 -20 -2 0 -3 9 -3 20 0 11 6 20 13 20 11 0
11 -5 3 -20z m180 12 c0 -4 -10 -9 -22 -9 -18 -2 -20 0 -8 7 18 12 30 13 30 2z
m-320 -13 c0 -5 4 -8 8 -5 4 2 13 -4 20 -14 10 -17 9 -19 -18 -15 -20 2 -27 0
-24 -9 3 -7 -2 -18 -10 -25 -12 -11 -15 -9 -14 11 0 13 5 33 11 46 11 23 27
30 27 11z m190 -24 c0 -8 -4 -15 -10 -15 -5 0 -10 7 -10 15 0 8 5 15 10 15 6
0 10 -7 10 -15z m-40 -7 c0 -7 -12 -22 -27 -32 -26 -19 -24 -9 6 26 18 21 21
22 21 6z m-50 -8 c0 -5 -5 -10 -11 -10 -5 0 -7 5 -4 10 3 6 8 10 11 10 2 0 4
-4 4 -10z m-346 -36 c3 -8 2 -12 -4 -9 -6 3 -10 10 -10 16 0 14 7 11 14 -7z
m154 -18 c-7 -8 -16 -12 -21 -9 -11 7 2 23 19 23 12 0 12 -2 2 -14z m-168 -5
c0 -5 -11 -11 -25 -13 -23 -5 -32 2 -20 13 8 8 45 8 45 0z m334 -7 c3 -8 2
-12 -3 -9 -5 3 -12 1 -16 -5 -4 -6 -11 -8 -16 -4 -6 4 -6 11 2 20 15 18 25 18
33 -2z m-206 -25 c-3 -8 -7 -3 -11 10 -4 17 -3 21 5 13 5 -5 8 -16 6 -23z
m-198 7 c0 -3 -4 -8 -10 -11 -5 -3 -10 -1 -10 4 0 6 5 11 10 11 6 0 10 -2 10
-4z m176 -23 c-10 -10 -19 5 -10 18 6 11 8 11 12 0 2 -7 1 -15 -2 -18z m69 17
c3 -5 -1 -10 -10 -10 -9 0 -13 5 -10 10 3 6 8 10 10 10 2 0 7 -4 10 -10z m65
-20 c0 -5 -2 -10 -4 -10 -3 0 -8 5 -11 10 -3 6 -1 10 4 10 6 0 11 -4 11 -10z
m-370 -10 c0 -5 -8 -10 -17 -10 -15 0 -16 2 -3 10 19 12 20 12 20 0z m184 -28
c3 -5 -1 -9 -9 -9 -8 0 -12 4 -9 9 3 4 7 8 9 8 2 0 6 -4 9 -8z m-267 -18 c-3
-3 -12 -4 -19 -1 -8 3 -5 6 6 6 11 1 17 -2 13 -5z m-152 -54 c3 -5 1 -10 -4
-10 -6 0 -11 5 -11 10 0 6 2 10 4 10 3 0 8 -4 11 -10z m489 1 c4 -5 -3 -7 -14
-4 -23 6 -26 13 -6 13 8 0 17 -4 20 -9z m111 -111 c8 -16 15 -41 15 -55 0 -18
8 -29 28 -37 47 -20 71 -18 99 8 14 13 30 24 35 24 5 0 6 5 3 10 -8 13 39 13
63 1 9 -5 25 -12 35 -15 9 -3 20 -14 23 -23 3 -10 12 -33 20 -52 13 -30 13
-35 -2 -52 -16 -18 -16 -20 2 -42 34 -39 46 -69 46 -113 0 -24 4 -44 8 -44 9
0 5 -38 -5 -48 -10 -10 -35 -11 -29 -1 3 5 -2 9 -10 9 -9 0 -16 5 -16 10 0 6
-6 10 -14 10 -7 0 -24 9 -38 19 -36 28 -76 37 -84 18 -3 -9 -11 -14 -18 -11
-18 7 -71 -48 -74 -76 -2 -15 4 -39 12 -55 9 -17 16 -37 16 -45 1 -22 22 -46
48 -54 12 -4 22 -12 22 -17 0 -5 7 -9 15 -9 8 0 15 -6 15 -12 0 -10 2 -10 8 0
9 13 42 6 42 -9 0 -5 10 -9 23 -9 29 0 43 -10 49 -37 7 -26 -7 -33 -63 -33
-21 0 -39 -4 -39 -10 0 -5 -9 -10 -20 -10 -17 0 -20 -7 -20 -39 0 -34 -7 -46
-51 -90 -28 -28 -55 -51 -60 -51 -5 0 -23 15 -39 34 -17 18 -42 38 -57 44 -16
5 -37 14 -48 18 -11 4 -22 8 -25 9 -19 7 -49 18 -70 28 -14 6 -28 10 -32 9 -5
-1 -8 2 -8 7 0 5 -8 11 -19 14 -12 3 -20 18 -25 48 -8 49 -31 80 -52 72 -17
-6 -16 -9 -18 88 -1 67 -5 82 -33 127 -18 29 -39 52 -47 52 -9 0 -29 14 -47
31 -17 17 -37 28 -44 25 -8 -3 -11 2 -8 15 4 13 -2 21 -21 29 -31 12 -37 45
-6 35 12 -4 20 -2 20 5 0 6 5 8 12 4 7 -4 8 -3 4 5 -10 15 3 53 15 45 5 -3 17
4 27 15 10 12 31 22 50 23 17 1 32 5 32 9 0 4 10 11 23 15 12 4 24 10 27 13 3
4 30 19 60 34 77 39 120 70 120 85 0 7 4 11 9 8 5 -3 24 1 42 9 48 20 57 19
74 -15z m-537 -298 c-2 -9 3 -16 10 -14 6 1 12 -7 12 -18 0 -11 -5 -20 -12
-20 -9 0 -9 -3 0 -12 17 -17 15 -33 -3 -18 -8 6 -20 8 -27 4 -10 -5 -10 -4 -1
6 10 11 10 17 0 29 -9 12 -9 13 1 7 14 -8 16 3 2 24 -8 13 -10 13 -14 0 -3 -8
-6 -24 -8 -34 -2 -11 -9 -21 -16 -24 -10 -3 -10 4 2 32 14 32 13 37 -2 46 -14
9 -12 10 11 7 15 -2 27 0 27 5 0 5 5 6 10 3 6 -4 9 -14 8 -23z m-84 -48 c10
-25 -1 -29 -14 -5 -6 12 -7 21 -1 21 5 0 12 -7 15 -16z m73 -52 c9 -5 6 -11
-9 -21 -18 -11 -20 -11 -15 2 3 9 1 18 -6 21 -8 3 -6 5 3 5 8 0 20 -3 27 -7z
m0 -48 c-3 -3 -12 -4 -19 -1 -8 3 -5 6 6 6 11 1 17 -2 13 -5z m-52 -44 c3 -5
2 -10 -4 -10 -5 0 -13 5 -16 10 -3 6 -2 10 4 10 5 0 13 -4 16 -10z"/>
<path d="M2120 3535 l0 -85 63 0 c95 0 132 39 107 115 -13 39 -48 55 -121 55
l-49 0 0 -85z"/>
<path d="M1516 3477 c-10 -7 -22 -33 -26 -56 l-8 -43 59 4 c33 2 64 9 71 16
15 15 13 73 -4 83 -20 13 -72 11 -92 -4z"/>
<path d="M2548 3479 c-14 -8 -38 -65 -38 -91 0 -11 84 -10 114 2 21 8 26 16
26 43 0 18 -5 38 -12 45 -14 14 -66 15 -90 1z"/>
<path d="M3716 3458 c-20 -28 -21 -142 -3 -178 16 -31 75 -49 111 -32 49 22
59 169 15 213 -28 28 -103 26 -123 -3z"/>
<path d="M5316 3477 c-10 -7 -22 -33 -26 -56 l-8 -43 59 4 c33 2 64 9 71 16
15 15 13 73 -4 83 -20 13 -72 11 -92 -4z"/>
<path d="M4010 2796 l0 -86 65 0 c82 0 105 19 105 83 0 61 -23 80 -106 85
l-64 4 0 -86z"/>
<path d="M669 2757 l-26 -92 55 -3 c30 -2 56 -1 59 2 5 5 -45 166 -56 178 -4
4 -18 -34 -32 -85z"/>
<path d="M1681 2733 c-12 -10 -24 -35 -28 -55 l-6 -38 46 0 c72 0 97 13 97 53
0 18 -5 38 -12 45 -18 18 -73 15 -97 -5z"/>
<path d="M2986 2600 c-62 -12 -83 -53 -46 -90 22 -22 52 -25 99 -9 29 10 31
14 31 60 0 54 -1 55 -84 39z"/>
<path d="M5916 2718 c-20 -28 -21 -142 -3 -178 16 -31 75 -49 111 -32 49 22
59 169 15 213 -28 28 -103 26 -123 -3z"/>
<path d="M6526 2718 c-20 -28 -21 -142 -3 -178 16 -31 75 -49 111 -32 49 22
59 169 15 213 -28 28 -103 26 -123 -3z"/>
<path d="M6955 2752 c-55 -11 -76 -86 -33 -116 53 -37 128 -6 128 52 0 44 -45
74 -95 64z"/>
<path d="M6907 2433 c-11 -11 -8 -58 5 -71 7 -7 38 -12 70 -12 45 0 63 5 78
20 24 24 25 34 4 54 -11 11 -35 16 -83 16 -37 0 -71 -3 -74 -7z"/>
<path d="M8516 2600 c-62 -12 -83 -53 -46 -90 22 -22 52 -25 99 -9 29 10 31
14 31 60 0 54 -1 55 -84 39z"/>
<path d="M9996 2718 c-20 -28 -21 -142 -3 -178 16 -31 75 -49 111 -32 49 22
59 169 15 213 -28 28 -103 26 -123 -3z"/>
<path d="M10955 2725 c-16 -15 -25 -36 -25 -55 0 -29 2 -30 43 -30 77 0 115
38 87 89 -16 31 -74 28 -105 -4z"/>
<path d="M2820 2055 l0 -85 63 0 c95 0 132 39 107 115 -13 39 -48 55 -121 55
l-49 0 0 -85z"/>
<path d="M2402 2036 c-12 -47 -25 -92 -28 -101 -5 -12 4 -15 56 -15 56 0 61 2
55 19 -3 11 -18 56 -33 101 l-28 81 -22 -85z"/>
<path d="M3292 2036 c-12 -47 -25 -92 -28 -101 -5 -12 4 -15 56 -15 56 0 61 2
55 19 -3 11 -18 56 -33 101 l-28 81 -22 -85z"/>
<path d="M4110 1950 l0 -180 45 0 c94 0 135 53 135 173 0 79 -15 133 -45 163
-20 20 -35 24 -80 24 l-55 0 0 -180z"/>
<path d="M16306 1214 c-11 -8 -16 -14 -10 -14 13 0 39 18 34 24 -3 2 -14 -2
-24 -10z"/>
<path d="M18763 4542 c-24 -2 -43 -7 -43 -11 0 -14 34 -38 62 -45 37 -8 98 17
98 41 0 19 -22 22 -117 15z"/>
<path d="M19022 4540 c-42 -5 -42 -5 -27 -27 21 -30 103 -33 128 -5 10 10 17
21 17 24 0 9 -70 14 -118 8z"/>
<path d="M198 4403 c7 -3 16 -2 19 1 4 3 -2 6 -13 5 -11 0 -14 -3 -6 -6z"/>
<path d="M18868 4403 c7 -3 16 -2 19 1 4 3 -2 6 -13 5 -11 0 -14 -3 -6 -6z"/>
<path d="M148 468 c5 -7 13 -32 17 -55 7 -46 42 -83 76 -83 16 0 19 -8 19 -50
0 -45 -2 -50 -22 -50 -36 0 -15 -9 43 -18 l54 -9 -32 -13 c-18 -6 -31 -16 -28
-20 3 -5 -3 -11 -12 -13 -15 -4 -16 -5 -1 -6 12 -1 16 -11 16 -36 0 -32 -3
-35 -21 -30 l-22 5 21 -11 c18 -9 32 -4 93 37 68 45 72 49 65 78 -8 40 -8 40
-34 26 -48 -26 -90 11 -90 79 0 24 5 30 30 34 44 9 70 40 70 85 0 21 6 44 13
51 10 10 7 12 -13 9 -21 -3 -26 -11 -36 -61 -13 -65 -12 -64 -39 -69 -17 -2
-21 3 -23 35 -2 22 1 52 7 68 10 29 10 29 -27 28 -20 0 -31 -3 -24 -6 8 -3 12
-26 12 -64 0 -52 -2 -59 -20 -59 -23 0 -40 28 -40 65 0 38 -17 65 -42 65 -15
0 -18 -3 -10 -12z"/>
<path d="M18807 468 c6 -7 13 -33 16 -58 6 -48 24 -68 70 -77 24 -5 27 -10 27
-50 0 -36 -4 -45 -22 -52 -21 -8 -19 -9 17 -16 22 -3 47 -8 55 -9 9 -2 4 -7
-12 -14 -16 -6 -28 -16 -28 -22 0 -5 -8 -10 -17 -11 -15 0 -14 -2 3 -9 12 -4
24 -16 27 -25 4 -9 3 -13 -3 -10 -6 3 -10 -3 -10 -14 0 -15 -5 -19 -17 -15
-16 5 -16 5 0 -6 15 -10 31 -4 93 35 52 33 74 52 70 62 -3 8 -6 19 -6 24 0 6
-4 7 -10 4 -6 -3 -7 1 -4 9 7 19 3 20 -30 5 -20 -10 -30 -9 -51 5 -21 14 -25
24 -25 61 0 33 4 45 15 46 23 2 29 4 46 14 23 14 39 49 39 84 0 17 5 31 10 31
6 0 10 5 10 10 0 18 -39 11 -50 -9 -5 -11 -10 -35 -10 -53 0 -38 -15 -58 -42
-58 -15 0 -18 9 -18 53 0 29 5 58 12 65 9 9 3 12 -27 12 -30 0 -36 -3 -27 -12
7 -7 12 -36 12 -65 0 -44 -3 -53 -18 -53 -26 0 -42 20 -42 51 0 46 -17 79 -41
79 -16 0 -19 -3 -12 -12z"/>
<path d="M368 302 c-70 -6 -37 -52 37 -52 73 0 106 45 38 51 -21 2 -55 3 -75
1z"/>
<path d="M18763 302 c-24 -2 -43 -7 -43 -11 0 -14 34 -38 62 -45 37 -8 98 17
98 41 0 19 -22 22 -117 15z"/>
<path d="M19022 300 c-42 -5 -42 -5 -27 -27 21 -30 103 -33 128 -5 10 10 17
21 17 24 0 9 -70 14 -118 8z"/>
<path d="M70 286 c0 -50 116 -56 148 -8 l14 22 -81 0 c-62 0 -81 -3 -81 -14z"/>
<path d="M18868 163 c7 -3 16 -2 19 1 4 3 -2 6 -13 5 -11 0 -14 -3 -6 -6z"/>
</g>
</svg>
